M48
METRIC,LZ,000.000
;FILE_FORMAT=3:3
;TYPE=PLATED
;Layer: PTH_Through_Via
;EasyEDA v6.5.22, 2023-01-31 16:09:17
;6fe1b45eb15a465e87536e095b6672f0,ba5b2474b43344648d466766df5634d0,10
;Gerber Generator version 0.2
;Holesize 1 = 0.305 mm
T01C0.305
%
G05
G90
T01
X007239Y034417
X007239Y033147
X007239Y031877
X007239Y030607
X007239Y029337
X007239Y028067
X007239Y026797
X007239Y025527
X007239Y024257
X007239Y022987
X007239Y021717
X007239Y020447
X007239Y019177
X007239Y017907
X007239Y016637
X007239Y015367
X007239Y014097
X007239Y012827
X007239Y011557
X007239Y010287
X012573Y010287
X012573Y011557
X012573Y012827
X012573Y014097
X012573Y015367
X012573Y016637
X012573Y017907
X012573Y019177
X012573Y020447
X012573Y021717
X012573Y022987
X012573Y024257
X012573Y025527
X012573Y028067
X012573Y029337
X012573Y030607
X012573Y031877
X012573Y033147
X012573Y034417
X030226Y034417
X030226Y033147
X030226Y031877
X030226Y030607
X030226Y029337
X030226Y028067
X030226Y025527
X030226Y024257
X030226Y022987
X030226Y021717
X030226Y020447
X030226Y019177
X030226Y017907
X030226Y016637
X030226Y015367
X030226Y014097
X030226Y012827
X030226Y011557
X030226Y010287
X024892Y010287
X024892Y011557
X024892Y012827
X024892Y014097
X024892Y015367
X024892Y016637
X024892Y017907
X024892Y019177
X024892Y020447
X024892Y021717
X024892Y022987
X024892Y024257
X024892Y025527
X024892Y026797
X024892Y028067
X024892Y029337
X024892Y030607
X024892Y031877
X024892Y033147
X024892Y034417
X042545Y034417
X042545Y033147
X042545Y031877
X042545Y030607
X042545Y029337
X042545Y028067
X042545Y026797
X042545Y025527
X042545Y024257
X042545Y022987
X042545Y021717
X042545Y020447
X042545Y019177
X042545Y017907
X042545Y016637
X042545Y015367
X042545Y014097
X042545Y012827
X042545Y011557
X042545Y010287
X047879Y010287
X047879Y011557
X047879Y012827
X047879Y014097
X047879Y015367
X047879Y016637
X047879Y017907
X047879Y019177
X047879Y020447
X047879Y021717
X047879Y022987
X047879Y024257
X047879Y025527
X047879Y028067
X047879Y029337
X047879Y030607
X047879Y031877
X047879Y033147
X047879Y034417
X060198Y034417
X060198Y033147
X060198Y031877
X060198Y030607
X060198Y029337
X060198Y028067
X060198Y026797
X060198Y025527
X060198Y024257
X060198Y022987
X060198Y021717
X060198Y020447
X060198Y019177
X060198Y017907
X060198Y016637
X060198Y015367
X060198Y014097
X060198Y012827
X060198Y011557
X060198Y010287
X065532Y010287
X065532Y011557
X065532Y012827
X065532Y014097
X065532Y015367
X065532Y016637
X065532Y017907
X065532Y019177
X065532Y020447
X065532Y021717
X065532Y022987
X065532Y024257
X065532Y025527
X065532Y028067
X065532Y029337
X065532Y030607
X065532Y031877
X065532Y033147
X065532Y034417
M30
