G04 Layer: TopLayer*
G04 EasyEDA v6.5.22, 2023-01-31 16:09:17*
G04 6fe1b45eb15a465e87536e095b6672f0,ba5b2474b43344648d466766df5634d0,10*
G04 Gerber Generator version 0.2*
G04 Scale: 100 percent, Rotated: No, Reflected: No *
G04 Dimensions in millimeters *
G04 leading zeros omitted , absolute positions ,4 integer and 5 decimal *
%FSLAX45Y45*%
%MOMM*%

%AMMACRO1*4,1,4,-1.389,-0.254,-1.389,0.254,1.389,0.254,1.389,-0.254,-1.389,-0.254,0*%
%ADD10C,0.2540*%
%ADD11MACRO1*%
%ADD12O,2.4999949999999997X1.499997*%
%ADD13C,1.0000*%
%ADD14C,1.5000*%
%ADD15C,0.6096*%
%ADD16C,0.0120*%

%LPD*%
D10*
X444500Y3441700D02*
G01*
X723900Y3441700D01*
X444500Y3314700D02*
G01*
X723900Y3314700D01*
X444500Y3187700D02*
G01*
X723900Y3187700D01*
X444500Y3060700D02*
G01*
X723900Y3060700D01*
X444500Y2933700D02*
G01*
X723900Y2933700D01*
X723900Y2806700D02*
G01*
X444500Y2806700D01*
X444500Y2679700D02*
G01*
X723900Y2679700D01*
X723900Y2552700D02*
G01*
X444500Y2552700D01*
X444500Y2425700D02*
G01*
X723900Y2425700D01*
X723900Y2298700D02*
G01*
X444500Y2298700D01*
X444500Y2171700D02*
G01*
X723900Y2171700D01*
X723900Y2044700D02*
G01*
X444500Y2044700D01*
X444500Y1917700D02*
G01*
X723900Y1917700D01*
X1535074Y1917700D02*
G01*
X1257300Y1917700D01*
X1257300Y2044700D02*
G01*
X1535074Y2044700D01*
X1257300Y2171700D02*
G01*
X1535074Y2171700D01*
X1535074Y2298700D02*
G01*
X1257300Y2298700D01*
X1257300Y2425700D02*
G01*
X1535074Y2425700D01*
X1257300Y2552700D02*
G01*
X1535074Y2552700D01*
X1257300Y2806700D02*
G01*
X1535074Y2806700D01*
X1257300Y2933700D02*
G01*
X1535074Y2933700D01*
X1257300Y3060700D02*
G01*
X1535074Y3060700D01*
X1535074Y3187700D02*
G01*
X1257300Y3187700D01*
X1257300Y3314700D02*
G01*
X1535074Y3314700D01*
X1257300Y3441700D02*
G01*
X1535074Y3441700D01*
X444500Y1790700D02*
G01*
X723900Y1790700D01*
X444500Y1663700D02*
G01*
X723900Y1663700D01*
X444500Y1536700D02*
G01*
X723900Y1536700D01*
X444500Y1409700D02*
G01*
X723900Y1409700D01*
X444500Y1282700D02*
G01*
X723900Y1282700D01*
X444500Y1155700D02*
G01*
X723900Y1155700D01*
X444500Y1028700D02*
G01*
X723900Y1028700D01*
X1535074Y1028700D02*
G01*
X1257300Y1028700D01*
X1535074Y1155700D02*
G01*
X1257300Y1155700D01*
X1535074Y1282700D02*
G01*
X1257300Y1282700D01*
X1535074Y1409700D02*
G01*
X1257300Y1409700D01*
X1535074Y1536700D02*
G01*
X1257300Y1536700D01*
X1535074Y1663700D02*
G01*
X1257300Y1663700D01*
X1535074Y1790700D02*
G01*
X1257300Y1790700D01*
X2211425Y3314700D02*
G01*
X2489200Y3314700D01*
X2211425Y3187700D02*
G01*
X2489200Y3187700D01*
X2211425Y3060700D02*
G01*
X2489200Y3060700D01*
X2211425Y2933700D02*
G01*
X2489200Y2933700D01*
X2211425Y2806700D02*
G01*
X2489200Y2806700D01*
X2211425Y2679700D02*
G01*
X2489200Y2679700D01*
X2211425Y2552700D02*
G01*
X2489200Y2552700D01*
X2211425Y2425700D02*
G01*
X2489200Y2425700D01*
X2211425Y2298700D02*
G01*
X2489200Y2298700D01*
X2211425Y2171700D02*
G01*
X2489200Y2171700D01*
X3022600Y2806700D02*
G01*
X3302000Y2806700D01*
X3302000Y2933700D02*
G01*
X3022600Y2933700D01*
X3022600Y3060700D02*
G01*
X3302000Y3060700D01*
X3022600Y3187700D02*
G01*
X3302000Y3187700D01*
X3022600Y3314700D02*
G01*
X3302000Y3314700D01*
X3022600Y3441700D02*
G01*
X3302000Y3441700D01*
X3022600Y2552700D02*
G01*
X3302000Y2552700D01*
X3022600Y2425700D02*
G01*
X3302000Y2425700D01*
X3022600Y2298700D02*
G01*
X3302000Y2298700D01*
X3022600Y2171700D02*
G01*
X3302000Y2171700D01*
X3022600Y2044700D02*
G01*
X3302000Y2044700D01*
X3022600Y1917700D02*
G01*
X3302000Y1917700D01*
X3022600Y1790700D02*
G01*
X3302000Y1790700D01*
X3022600Y1663700D02*
G01*
X3302000Y1663700D01*
X3022600Y1536700D02*
G01*
X3302000Y1536700D01*
X3022600Y1409700D02*
G01*
X3302000Y1409700D01*
X3022600Y1282700D02*
G01*
X3302000Y1282700D01*
X2489200Y2044700D02*
G01*
X2211425Y2044700D01*
X2211425Y1917700D02*
G01*
X2489200Y1917700D01*
X2489200Y1790700D02*
G01*
X2211425Y1790700D01*
X2489200Y1663700D02*
G01*
X2211425Y1663700D01*
X2489200Y1536700D02*
G01*
X2211425Y1536700D01*
X2489200Y1409700D02*
G01*
X2211425Y1409700D01*
X2489200Y1282700D02*
G01*
X2211425Y1282700D01*
X2489200Y1155700D02*
G01*
X2211425Y1155700D01*
X2489200Y1028700D02*
G01*
X2211425Y1028700D01*
X3022600Y1155700D02*
G01*
X3302000Y1155700D01*
X3022600Y1028700D02*
G01*
X3302000Y1028700D01*
X3976725Y3441700D02*
G01*
X4254500Y3441700D01*
X4254500Y3314700D02*
G01*
X3976725Y3314700D01*
X3976725Y3187700D02*
G01*
X4254500Y3187700D01*
X4254500Y3060700D02*
G01*
X3976725Y3060700D01*
X4254500Y2933700D02*
G01*
X3976725Y2933700D01*
X4254500Y2806700D02*
G01*
X3976725Y2806700D01*
X4254500Y2679700D02*
G01*
X3976725Y2679700D01*
X4254500Y2552700D02*
G01*
X3976725Y2552700D01*
X4254500Y2425700D02*
G01*
X3976725Y2425700D01*
X4254500Y2298700D02*
G01*
X3976725Y2298700D01*
X4254500Y2171700D02*
G01*
X3976725Y2171700D01*
X4254500Y2044700D02*
G01*
X3976725Y2044700D01*
X4254500Y1917700D02*
G01*
X3976725Y1917700D01*
X4254500Y1790700D02*
G01*
X3976725Y1790700D01*
X4254500Y1663700D02*
G01*
X3976725Y1663700D01*
X4254500Y1536700D02*
G01*
X3976725Y1536700D01*
X4254500Y1409700D02*
G01*
X3976725Y1409700D01*
X4254500Y1282700D02*
G01*
X3976725Y1282700D01*
X4254500Y1155700D02*
G01*
X3976725Y1155700D01*
X4254500Y1028700D02*
G01*
X3976725Y1028700D01*
X5067300Y1028700D02*
G01*
X4787900Y1028700D01*
X4787900Y1155700D02*
G01*
X5067300Y1155700D01*
X4787900Y1282700D02*
G01*
X5067300Y1282700D01*
X4787900Y1409700D02*
G01*
X5067300Y1409700D01*
X4787900Y1536700D02*
G01*
X5067300Y1536700D01*
X4787900Y1663700D02*
G01*
X5067300Y1663700D01*
X4787900Y1790700D02*
G01*
X5067300Y1790700D01*
X4787900Y1917700D02*
G01*
X5067300Y1917700D01*
X4787900Y2044700D02*
G01*
X5067300Y2044700D01*
X4787900Y2171700D02*
G01*
X5067300Y2171700D01*
X4787900Y2298700D02*
G01*
X5067300Y2298700D01*
X4787900Y2425700D02*
G01*
X5067300Y2425700D01*
X4787900Y2552700D02*
G01*
X5067300Y2552700D01*
X4787900Y2806700D02*
G01*
X5067300Y2806700D01*
X4787900Y2933700D02*
G01*
X5067300Y2933700D01*
X4787900Y3060700D02*
G01*
X5067300Y3060700D01*
X4787900Y3187700D02*
G01*
X5067300Y3187700D01*
X4787900Y3314700D02*
G01*
X5067300Y3314700D01*
X4787900Y3441700D02*
G01*
X5067300Y3441700D01*
X5742025Y3441700D02*
G01*
X6019800Y3441700D01*
X6019800Y3314700D02*
G01*
X5742025Y3314700D01*
X6019800Y3187700D02*
G01*
X5742025Y3187700D01*
X6019800Y3060700D02*
G01*
X5742025Y3060700D01*
X6019800Y2933700D02*
G01*
X5742025Y2933700D01*
X6019800Y2806700D02*
G01*
X5742025Y2806700D01*
X6019800Y2679700D02*
G01*
X5742025Y2679700D01*
X6019800Y2552700D02*
G01*
X5742025Y2552700D01*
X6019800Y2425700D02*
G01*
X5742025Y2425700D01*
X6019800Y2298700D02*
G01*
X5742025Y2298700D01*
X6019800Y2171700D02*
G01*
X5742025Y2171700D01*
X6019800Y2044700D02*
G01*
X5742025Y2044700D01*
X6019800Y1917700D02*
G01*
X5742025Y1917700D01*
X6019800Y1790700D02*
G01*
X5742025Y1790700D01*
X6019800Y1663700D02*
G01*
X5742025Y1663700D01*
X6019800Y1536700D02*
G01*
X5742025Y1536700D01*
X6019800Y1409700D02*
G01*
X5742025Y1409700D01*
X6019800Y1282700D02*
G01*
X5742025Y1282700D01*
X6019800Y1155700D02*
G01*
X5742025Y1155700D01*
X6019800Y1028700D02*
G01*
X5742025Y1028700D01*
X6553200Y1028700D02*
G01*
X6832600Y1028700D01*
X6553200Y1155700D02*
G01*
X6832600Y1155700D01*
X6553200Y1282700D02*
G01*
X6832600Y1282700D01*
X6553200Y1409700D02*
G01*
X6832600Y1409700D01*
X6553200Y1536700D02*
G01*
X6832600Y1536700D01*
X6832600Y1663700D02*
G01*
X6553200Y1663700D01*
X6553200Y1790700D02*
G01*
X6832600Y1790700D01*
X6553200Y1917700D02*
G01*
X6832600Y1917700D01*
X6553200Y2044700D02*
G01*
X6832600Y2044700D01*
X6553200Y2171700D02*
G01*
X6832600Y2171700D01*
X6553200Y2298700D02*
G01*
X6832600Y2298700D01*
X6553200Y2425700D02*
G01*
X6832600Y2425700D01*
X6553200Y2552700D02*
G01*
X6832600Y2552700D01*
X6553200Y2806700D02*
G01*
X6832600Y2806700D01*
X6553200Y2933700D02*
G01*
X6832600Y2933700D01*
X6553200Y3060700D02*
G01*
X6832600Y3060700D01*
X6553200Y3187700D02*
G01*
X6832600Y3187700D01*
X6553200Y3314700D02*
G01*
X6832600Y3314700D01*
X6553200Y3441700D02*
G01*
X6832600Y3441700D01*
X2489200Y3441700D02*
G01*
X2211425Y3441700D01*
X5067300Y2679700D02*
G01*
X4724400Y2679700D01*
X4584700Y2540000D01*
X4584700Y762000D01*
X6235700Y762000D01*
X6362700Y889000D01*
X6362700Y2540000D01*
X6489700Y2679700D01*
X6832600Y2679700D01*
X4584700Y762000D02*
G01*
X4584700Y419100D01*
X4660900Y342900D01*
X2603500Y342900D02*
G01*
X2120900Y342900D01*
X685800Y419100D02*
G01*
X1790700Y419100D01*
X1866900Y342900D01*
X685800Y165100D02*
G01*
X1943100Y165100D01*
X2120900Y342900D01*
X685800Y165100D02*
G01*
X279400Y165100D01*
X685800Y419100D02*
G01*
X279400Y419100D01*
X3302000Y2679700D02*
G01*
X2946400Y2679700D01*
X2819400Y2552700D01*
X2819400Y762000D01*
X1193800Y762000D01*
X1066800Y889000D01*
X1066800Y2552700D01*
X1193800Y2679700D01*
X1535074Y2679700D01*
X3479800Y342900D02*
G01*
X3060700Y762000D01*
X2819400Y762000D01*
D11*
G01*
X1535087Y2679700D03*
G01*
X3302012Y2679700D03*
G01*
X5067312Y2679700D03*
G01*
X6832612Y2679700D03*
G01*
X444487Y3441700D03*
G01*
X444487Y3314700D03*
G01*
X444487Y3187700D03*
G01*
X444487Y3060700D03*
G01*
X444487Y2933700D03*
G01*
X444487Y2806700D03*
G01*
X444487Y2679700D03*
G01*
X444487Y2552700D03*
G01*
X444487Y2425700D03*
G01*
X444487Y2298700D03*
G01*
X444487Y2171700D03*
G01*
X444487Y2044700D03*
G01*
X444487Y1917700D03*
G01*
X444487Y1790700D03*
G01*
X444487Y1663700D03*
G01*
X444487Y1536700D03*
G01*
X444487Y1409700D03*
G01*
X444487Y1282700D03*
G01*
X444487Y1155700D03*
G01*
X444487Y1028700D03*
G01*
X1535087Y3441700D03*
G01*
X1535087Y3314700D03*
G01*
X1535087Y3187700D03*
G01*
X1535087Y3060700D03*
G01*
X1535087Y2933700D03*
G01*
X1535087Y2806700D03*
G01*
X1535087Y2552700D03*
G01*
X1535087Y2425700D03*
G01*
X1535087Y2298700D03*
G01*
X1535087Y2171700D03*
G01*
X1535087Y2044700D03*
G01*
X1535087Y1917700D03*
G01*
X1535087Y1790700D03*
G01*
X1535087Y1663700D03*
G01*
X1535087Y1536700D03*
G01*
X1535087Y1409700D03*
G01*
X1535087Y1282700D03*
G01*
X1535087Y1155700D03*
G01*
X1535087Y1028700D03*
G01*
X2211412Y3441700D03*
G01*
X2211412Y3441700D03*
G01*
X2211412Y3314700D03*
G01*
X2211412Y3187700D03*
G01*
X2211412Y3060700D03*
G01*
X2211412Y1028700D03*
G01*
X2211412Y1155700D03*
G01*
X2211412Y1282700D03*
G01*
X2211412Y1409700D03*
G01*
X2211412Y1536700D03*
G01*
X2211412Y1663700D03*
G01*
X2211412Y1790700D03*
G01*
X2211412Y1917700D03*
G01*
X2211412Y2044700D03*
G01*
X2211412Y2171700D03*
G01*
X2211412Y2298700D03*
G01*
X2211412Y2425700D03*
G01*
X2211412Y2552700D03*
G01*
X2211412Y2679700D03*
G01*
X2211412Y2806700D03*
G01*
X2211412Y2933700D03*
G01*
X3302012Y3441700D03*
G01*
X3302012Y3314700D03*
G01*
X3302012Y3187700D03*
G01*
X3302012Y3060700D03*
G01*
X3302012Y2933700D03*
G01*
X3302012Y2806700D03*
G01*
X3302012Y2552700D03*
G01*
X3302012Y2425700D03*
G01*
X3302012Y2298700D03*
G01*
X3302012Y2171700D03*
G01*
X3302012Y2044700D03*
G01*
X3302012Y1917700D03*
G01*
X3302012Y1790700D03*
G01*
X3302012Y1663700D03*
G01*
X3302012Y1536700D03*
G01*
X3302012Y1409700D03*
G01*
X3302012Y1282700D03*
G01*
X3302012Y1155700D03*
G01*
X3302012Y1028700D03*
G01*
X3976712Y3441700D03*
G01*
X3976712Y3314700D03*
G01*
X3976712Y3187700D03*
G01*
X3976712Y3060700D03*
G01*
X3976712Y2933700D03*
G01*
X3976712Y2806700D03*
G01*
X3976712Y2679700D03*
G01*
X3976712Y2552700D03*
G01*
X3976712Y2425700D03*
G01*
X3976712Y2298700D03*
G01*
X3976712Y2171700D03*
G01*
X3976712Y2044700D03*
G01*
X3976712Y1917700D03*
G01*
X3976712Y1790700D03*
G01*
X3976712Y1663700D03*
G01*
X3976712Y1536700D03*
G01*
X3976712Y1409700D03*
G01*
X3976712Y1282700D03*
G01*
X3976712Y1155700D03*
G01*
X3976712Y1028700D03*
G01*
X5067312Y3441700D03*
G01*
X5067312Y3314700D03*
G01*
X5067312Y3187700D03*
G01*
X5067312Y3060700D03*
G01*
X5067312Y2933700D03*
G01*
X5067312Y2806700D03*
G01*
X5067312Y2552700D03*
G01*
X5067312Y2425700D03*
G01*
X5067312Y2298700D03*
G01*
X5067312Y2171700D03*
G01*
X5067312Y2044700D03*
G01*
X5067312Y1917700D03*
G01*
X5067312Y1790700D03*
G01*
X5067312Y1663700D03*
G01*
X5067312Y1536700D03*
G01*
X5067312Y1409700D03*
G01*
X5067312Y1282700D03*
G01*
X5067312Y1155700D03*
G01*
X5067312Y1028700D03*
G01*
X5742012Y1028700D03*
G01*
X5742012Y1155700D03*
G01*
X5742012Y1282700D03*
G01*
X5742012Y1409700D03*
G01*
X5742012Y1536700D03*
G01*
X5742012Y1663700D03*
G01*
X5742012Y1790700D03*
G01*
X5742012Y1917700D03*
G01*
X5742012Y2044700D03*
G01*
X5742012Y2171700D03*
G01*
X5742012Y2298700D03*
G01*
X5742012Y2425700D03*
G01*
X5742012Y2552700D03*
G01*
X5742012Y2679700D03*
G01*
X5742012Y2806700D03*
G01*
X5742012Y2933700D03*
G01*
X5742012Y3060700D03*
G01*
X5742012Y3187700D03*
G01*
X5742012Y3314700D03*
G01*
X5742012Y3441700D03*
G01*
X6832612Y3441700D03*
G01*
X6832612Y3314700D03*
G01*
X6832612Y3187700D03*
G01*
X6832612Y3060700D03*
G01*
X6832612Y2933700D03*
G01*
X6832612Y2806700D03*
G01*
X6832612Y2552700D03*
G01*
X6832612Y2425700D03*
G01*
X6832612Y2298700D03*
G01*
X6832612Y2171700D03*
G01*
X6832612Y2044700D03*
G01*
X6832612Y1917700D03*
G01*
X6832612Y1790700D03*
G01*
X6832612Y1663700D03*
G01*
X6832612Y1536700D03*
G01*
X6832612Y1409700D03*
G01*
X6832612Y1282700D03*
G01*
X6832612Y1155700D03*
G01*
X6832612Y1028700D03*
D12*
G01*
X279400Y419100D03*
G01*
X279400Y165100D03*
D13*
G01*
X3479800Y342900D03*
G01*
X2603500Y342900D03*
G01*
X3784600Y342900D03*
G01*
X4660900Y342900D03*
D14*
G01*
X2120900Y342900D03*
G01*
X1866900Y342900D03*
G01*
X685800Y165100D03*
G01*
X685800Y419100D03*
D15*
G01*
X723900Y3441700D03*
G01*
X723900Y3314700D03*
G01*
X723900Y3187700D03*
G01*
X723900Y3060700D03*
G01*
X723900Y2933700D03*
G01*
X723900Y2806700D03*
G01*
X723900Y2679700D03*
G01*
X723900Y2552700D03*
G01*
X723900Y2425700D03*
G01*
X723900Y2298700D03*
G01*
X723900Y2171700D03*
G01*
X723900Y2044700D03*
G01*
X723900Y1917700D03*
G01*
X723900Y1790700D03*
G01*
X723900Y1663700D03*
G01*
X723900Y1536700D03*
G01*
X723900Y1409700D03*
G01*
X723900Y1282700D03*
G01*
X723900Y1155700D03*
G01*
X723900Y1028700D03*
G01*
X1257300Y1028700D03*
G01*
X1257300Y1155700D03*
G01*
X1257300Y1282700D03*
G01*
X1257300Y1409700D03*
G01*
X1257300Y1536700D03*
G01*
X1257300Y1663700D03*
G01*
X1257300Y1790700D03*
G01*
X1257300Y1917700D03*
G01*
X1257300Y2044700D03*
G01*
X1257300Y2171700D03*
G01*
X1257300Y2298700D03*
G01*
X1257300Y2425700D03*
G01*
X1257300Y2552700D03*
G01*
X1257300Y2806700D03*
G01*
X1257300Y2933700D03*
G01*
X1257300Y3060700D03*
G01*
X1257300Y3187700D03*
G01*
X1257300Y3314700D03*
G01*
X1257300Y3441700D03*
G01*
X3022600Y3441700D03*
G01*
X3022600Y3314700D03*
G01*
X3022600Y3187700D03*
G01*
X3022600Y3060700D03*
G01*
X3022600Y2933700D03*
G01*
X3022600Y2806700D03*
G01*
X3022600Y2552700D03*
G01*
X3022600Y2425700D03*
G01*
X3022600Y2298700D03*
G01*
X3022600Y2171700D03*
G01*
X3022600Y2044700D03*
G01*
X3022600Y1917700D03*
G01*
X3022600Y1790700D03*
G01*
X3022600Y1663700D03*
G01*
X3022600Y1536700D03*
G01*
X3022600Y1409700D03*
G01*
X3022600Y1282700D03*
G01*
X3022600Y1155700D03*
G01*
X3022600Y1028700D03*
G01*
X2489200Y1028700D03*
G01*
X2489200Y1155700D03*
G01*
X2489200Y1282700D03*
G01*
X2489200Y1409700D03*
G01*
X2489200Y1536700D03*
G01*
X2489200Y1663700D03*
G01*
X2489200Y1790700D03*
G01*
X2489200Y1917700D03*
G01*
X2489200Y2044700D03*
G01*
X2489200Y2171700D03*
G01*
X2489200Y2298700D03*
G01*
X2489200Y2425700D03*
G01*
X2489200Y2552700D03*
G01*
X2489200Y2679700D03*
G01*
X2489200Y2806700D03*
G01*
X2489200Y2933700D03*
G01*
X2489200Y3060700D03*
G01*
X2489200Y3187700D03*
G01*
X2489200Y3314700D03*
G01*
X2489200Y3441700D03*
G01*
X4254500Y3441700D03*
G01*
X4254500Y3314700D03*
G01*
X4254500Y3187700D03*
G01*
X4254500Y3060700D03*
G01*
X4254500Y2933700D03*
G01*
X4254500Y2806700D03*
G01*
X4254500Y2679700D03*
G01*
X4254500Y2552700D03*
G01*
X4254500Y2425700D03*
G01*
X4254500Y2298700D03*
G01*
X4254500Y2171700D03*
G01*
X4254500Y2044700D03*
G01*
X4254500Y1917700D03*
G01*
X4254500Y1790700D03*
G01*
X4254500Y1663700D03*
G01*
X4254500Y1536700D03*
G01*
X4254500Y1409700D03*
G01*
X4254500Y1282700D03*
G01*
X4254500Y1155700D03*
G01*
X4254500Y1028700D03*
G01*
X4787900Y1028700D03*
G01*
X4787900Y1155700D03*
G01*
X4787900Y1282700D03*
G01*
X4787900Y1409700D03*
G01*
X4787900Y1536700D03*
G01*
X4787900Y1663700D03*
G01*
X4787900Y1790700D03*
G01*
X4787900Y1917700D03*
G01*
X4787900Y2044700D03*
G01*
X4787900Y2171700D03*
G01*
X4787900Y2298700D03*
G01*
X4787900Y2425700D03*
G01*
X4787900Y2552700D03*
G01*
X4787900Y2806700D03*
G01*
X4787900Y2933700D03*
G01*
X4787900Y3060700D03*
G01*
X4787900Y3187700D03*
G01*
X4787900Y3314700D03*
G01*
X4787900Y3441700D03*
G01*
X6019800Y3441700D03*
G01*
X6019800Y3314700D03*
G01*
X6019800Y3187700D03*
G01*
X6019800Y3060700D03*
G01*
X6019800Y2933700D03*
G01*
X6019800Y2806700D03*
G01*
X6019800Y2679700D03*
G01*
X6019800Y2552700D03*
G01*
X6019800Y2425700D03*
G01*
X6019800Y2298700D03*
G01*
X6019800Y2171700D03*
G01*
X6019800Y2044700D03*
G01*
X6019800Y1917700D03*
G01*
X6019800Y1790700D03*
G01*
X6019800Y1663700D03*
G01*
X6019800Y1536700D03*
G01*
X6019800Y1409700D03*
G01*
X6019800Y1282700D03*
G01*
X6019800Y1155700D03*
G01*
X6019800Y1028700D03*
G01*
X6553200Y1028700D03*
G01*
X6553200Y1155700D03*
G01*
X6553200Y1282700D03*
G01*
X6553200Y1409700D03*
G01*
X6553200Y1536700D03*
G01*
X6553200Y1663700D03*
G01*
X6553200Y1790700D03*
G01*
X6553200Y1917700D03*
G01*
X6553200Y2044700D03*
G01*
X6553200Y2171700D03*
G01*
X6553200Y2298700D03*
G01*
X6553200Y2425700D03*
G01*
X6553200Y2552700D03*
G01*
X6553200Y2806700D03*
G01*
X6553200Y2933700D03*
G01*
X6553200Y3060700D03*
G01*
X6553200Y3187700D03*
G01*
X6553200Y3314700D03*
G01*
X6553200Y3441700D03*
M02*
